<?xml version="1.0" encoding="utf-8"?>
<!-- Generator: Adobe Illustrator 24.0.1, SVG Export Plug-In . SVG Version: 6.00 Build 0)  -->
<svg version="1.0" id="Layer_1" xmlns="http://www.w3.org/2000/svg" xmlns:xlink="http://www.w3.org/1999/xlink" x="0px" y="0px"
	 viewBox="0 0 610 144" enable-background="new 0 0 610 144" xml:space="preserve">
<rect fill="#14191F" width="610" height="144"/>
<g>
	<path fill="#FFFFFF" d="M235.9,15.4h42.7c5.9,0,11,1.2,15.5,3.5c4.4,2.3,7.9,5.5,10.4,9.6c2.5,4.1,3.7,8.7,3.7,13.8
		c0,5.1-1.2,9.7-3.7,13.7c-2.5,4-5.9,7.1-10.4,9.4c-4.4,2.2-9.6,3.4-15.5,3.4h-23.2V60h27.4c5.9,0,11,1.1,15.5,3.4
		c4.4,2.3,7.9,5.5,10.4,9.5c2.5,4.1,3.7,8.7,3.7,13.8c0,5.1-1.2,9.7-3.7,13.8c-2.5,4.1-5.9,7.2-10.4,9.4c-4.4,2.2-9.6,3.4-15.5,3.4
		h-46.9V15.4z M283.5,54.5c2-1.1,3.5-2.5,4.5-4.2c1.1-1.7,1.6-3.8,1.6-6.1c0-2.2-0.5-4.2-1.6-6c-1.1-1.8-2.6-3.2-4.5-4.1
		c-2-1-4.2-1.5-6.9-1.5h-21.3v23.5h21.3C279.3,56.1,281.5,55.6,283.5,54.5z M286.1,94.6c1.9-1,3.4-2.4,4.5-4.2
		c1.1-1.8,1.6-3.8,1.6-6c0-2.3-0.5-4.4-1.6-6.1c-1.1-1.7-2.6-3.1-4.5-4.1c-1.9-1-4.2-1.5-6.8-1.5h-23.9v23.5h23.9
		C281.9,96.2,284.2,95.7,286.1,94.6z"/>
	<path fill="#FFFFFF" d="M338.3,69.6h44.5l-4.3,6c-0.2-3.7-1.1-7.1-2.8-10.1c-1.7-3-3.9-5.3-6.8-7c-2.8-1.7-6.1-2.5-9.7-2.5
		c-3.6,0-7,0.9-9.9,2.8c-3,1.9-5.3,4.4-7,7.7c-1.7,3.3-2.5,6.9-2.5,10.8c0,4,0.9,7.7,2.6,10.9c1.7,3.3,4.2,5.8,7.3,7.6
		c3.2,1.8,6.8,2.7,10.8,2.7c3.9,0,7.4-0.9,10.6-2.7c3.1-1.8,5.6-4.2,7.4-7.4l15.5,7c-3.4,5.9-8,10.6-13.9,14.1s-12.6,5.3-20.2,5.3
		c-7.2,0-13.7-1.6-19.6-4.9c-5.9-3.3-10.5-7.8-13.9-13.5c-3.4-5.7-5.1-12.1-5.1-19.1s1.7-13.3,5-19c3.3-5.7,7.9-10.2,13.7-13.5
		c5.8-3.3,12.2-5,19.3-5c7.9,0,15,2,21.1,6c6.2,4,10.7,9.4,13.7,16.2c2.9,6.8,3.8,14.1,2.4,22h-58.1V69.6z"/>
	<path fill="#FFFFFF" d="M413.1,77.4c5.3-3.6,11.9-5.8,19.9-6.6l11.8-1.1c2.3-0.2,4-0.7,5.1-1.6c1.1-0.9,1.6-2.3,1.6-4.1
		c0-2.6-1.1-4.7-3.3-6.3c-2.2-1.6-5-2.4-8.5-2.4c-3.7,0-6.8,1-9.2,2.9c-2.4,1.9-3.9,4.6-4.5,8.1L407.3,62c0.7-4.2,2.4-8,5.2-11.3
		c2.8-3.4,6.5-6,11.2-8c4.7-2,10-2.9,16-2.9c9.1,0,16.6,2.4,22.3,7.1c5.7,4.8,8.5,11.7,8.5,20.9v45.6h-18.9v-11.1l1.4,0.4
		c-2.4,3.6-5.8,6.6-10,8.8c-4.2,2.2-9,3.3-14.2,3.3c-4.5,0-8.5-0.8-12-2.5c-3.5-1.7-6.3-4.1-8.4-7.2c-2.1-3.1-3.1-6.8-3.1-11
		C405.2,86.6,407.8,81,413.1,77.4z M426.6,97.8c1.7,1.3,3.9,2,6.7,2c3.2,0,6.2-0.8,9-2.4c2.8-1.6,5-3.7,6.7-6.2
		c1.7-2.6,2.5-5.3,2.5-8v-3.5l1.4,0.4c-0.5,1-1.3,1.8-2.5,2.2c-1.2,0.5-3,0.8-5.4,1.1l-12.2,1.4c-2.7,0.4-4.9,1.2-6.4,2.6
		c-1.6,1.4-2.4,3.1-2.4,5.1C424.1,94.8,424.9,96.5,426.6,97.8z"/>
	<path fill="#FFFFFF" d="M484.8,41.1h18.9v17.2l-3.1-3.5c2.3-4.6,5.5-8.2,9.4-11c3.9-2.8,8.4-4.1,13.4-4.1c5.6,0,10.5,1.5,14.7,4.5
		c4.2,3,7.4,7.2,9.5,12.5l-5.7-0.4c2.3-5.1,5.7-9.2,10.2-12.2c4.5-3,9.5-4.5,15.1-4.5c5.6,0,10.6,1.3,14.9,3.8
		c4.3,2.6,7.7,6.1,10.2,10.6c2.4,4.5,3.6,9.6,3.6,15.3v43.8h-19V72.9c0-3.1-0.6-5.8-1.7-8.3c-1.1-2.4-2.7-4.3-4.8-5.7
		c-2.1-1.4-4.4-2-7.1-2c-2.5,0-4.8,0.7-6.9,2c-2.1,1.4-3.7,3.2-4.9,5.7c-1.2,2.4-1.8,5.2-1.8,8.3v40.5h-18.9V72.9
		c0-3.1-0.6-5.8-1.7-8.3c-1.1-2.4-2.7-4.3-4.8-5.7c-2.1-1.4-4.4-2-7.1-2c-2.5,0-4.8,0.7-6.9,2c-2.1,1.4-3.7,3.2-4.9,5.7
		c-1.2,2.4-1.8,5.2-1.8,8.3v40.5h-18.9V41.1z"/>
</g>
<g>
	<linearGradient id="SVGID_1_" gradientUnits="userSpaceOnUse" x1="6.3891" y1="99.5853" x2="90.65" y2="99.5853">
		<stop  offset="0" style="stop-color:#FF6D08;stop-opacity:0"/>
		<stop  offset="1" style="stop-color:#FF590C"/>
	</linearGradient>
	<rect x="6.4" y="95.7" fill="url(#SVGID_1_)" width="84.3" height="7.7"/>
	<linearGradient id="SVGID_2_" gradientUnits="userSpaceOnUse" x1="24.1785" y1="75.9299" x2="90.65" y2="75.9299">
		<stop  offset="0" style="stop-color:#FF6D08"/>
		<stop  offset="1" style="stop-color:#FF590C"/>
	</linearGradient>
	<path fill="url(#SVGID_2_)" d="M87.1,79.8H27.8c-2,0-3.6-1.6-3.6-3.6v-0.6c0-2,1.6-3.6,3.6-3.6h59.3c2,0,3.6,1.6,3.6,3.6v0.6
		C90.7,78.2,89,79.8,87.1,79.8z"/>
	<linearGradient id="SVGID_3_" gradientUnits="userSpaceOnUse" x1="6.3891" y1="52.2746" x2="90.65" y2="52.2746">
		<stop  offset="0" style="stop-color:#FF6D08;stop-opacity:0"/>
		<stop  offset="1" style="stop-color:#FF590C"/>
	</linearGradient>
	<rect x="6.4" y="48.4" fill="url(#SVGID_3_)" width="84.3" height="7.7"/>
	<linearGradient id="SVGID_4_" gradientUnits="userSpaceOnUse" x1="6.3891" y1="28.6193" x2="90.65" y2="28.6193">
		<stop  offset="1.331947e-07" style="stop-color:#FF6D08;stop-opacity:0"/>
		<stop  offset="0.4462" style="stop-color:#FF6909;stop-opacity:0.4462"/>
		<stop  offset="0.9077" style="stop-color:#FF5C0B;stop-opacity:0.9077"/>
		<stop  offset="1" style="stop-color:#FF590C"/>
	</linearGradient>
	<rect x="6.4" y="24.7" fill="url(#SVGID_4_)" width="84.3" height="7.7"/>
	<linearGradient id="SVGID_5_" gradientUnits="userSpaceOnUse" x1="71.6153" y1="74.8658" x2="200.0971" y2="74.8658">
		<stop  offset="0" style="stop-color:#FF590C"/>
		<stop  offset="1" style="stop-color:#FF6D08"/>
	</linearGradient>
	<path fill="url(#SVGID_5_)" d="M200.1,55.5v20.4c0,22.6-18.3,40.9-40.9,40.9h-32.7l-26.1,17.8c-2.4,1.6-5.5-0.3-5.3-3.1l1.7-17.8
		C82,107.5,71.6,92.9,71.6,75.9v-3.8h75.9v-16H71.6v-0.7c0-22.6,18.3-40.9,40.9-40.9h46.8C181.8,14.6,200.1,32.9,200.1,55.5z"/>
	<linearGradient id="SVGID_6_" gradientUnits="userSpaceOnUse" x1="71.6153" y1="64.085" x2="147.5612" y2="64.085">
		<stop  offset="1.331947e-07" style="stop-color:#FF6D08;stop-opacity:0"/>
		<stop  offset="0.4462" style="stop-color:#FF6909;stop-opacity:0.4462"/>
		<stop  offset="0.9077" style="stop-color:#FF5C0B;stop-opacity:0.9077"/>
		<stop  offset="1" style="stop-color:#FF590C"/>
	</linearGradient>
	<rect x="71.6" y="56.1" fill="url(#SVGID_6_)" width="75.9" height="16"/>
</g>
</svg>
